<svg width="21" height="20" viewBox="0 0 21 20" fill="none" xmlns="http://www.w3.org/2000/svg">
<path d="M15.5002 7.08333H14.6668V5.41667C14.6668 3.11667 12.8002 1.25 10.5002 1.25C8.20016 1.25 6.3335 3.11667 6.3335 5.41667V7.08333H5.50016C4.5835 7.08333 3.8335 7.83333 3.8335 8.75V17.0833C3.8335 18 4.5835 18.75 5.50016 18.75H15.5002C16.4168 18.75 17.1668 18 17.1668 17.0833V8.75C17.1668 7.83333 16.4168 7.08333 15.5002 7.08333ZM8.00016 5.41667C8.00016 4.03333 9.11683 2.91667 10.5002 2.91667C11.8835 2.91667 13.0002 4.03333 13.0002 5.41667V7.08333H8.00016V5.41667ZM15.5002 17.0833H5.50016V8.75H15.5002V17.0833ZM10.5002 14.5833C11.4168 14.5833 12.1668 13.8333 12.1668 12.9167C12.1668 12 11.4168 11.25 10.5002 11.25C9.5835 11.25 8.8335 12 8.8335 12.9167C8.8335 13.8333 9.5835 14.5833 10.5002 14.5833Z" fill="white"/>
</svg>
